<?xml version="1.0" standalone="no"?>
<!DOCTYPE svg PUBLIC "-//W3C//DTD SVG 20010904//EN"
 "http://www.w3.org/TR/2001/REC-SVG-20010904/DTD/svg10.dtd">
<svg version="1.0" xmlns="http://www.w3.org/2000/svg"
 width="16.000000pt" height="16.000000pt" viewBox="0 0 16.000000 16.000000"
 preserveAspectRatio="xMidYMid meet">
<metadata>
Created by potrace 1.11, written by Peter Selinger 2001-2013
</metadata>
<g transform="translate(0.000000,16.000000) scale(0.004638,-0.004638)"
fill="#000000" stroke="none">
<path d="M1565 3434 c-121 -29 -180 -58 -403 -195 -79 -49 -146 -89 -148 -89
-2 0 -27 -15 -56 -33 -29 -19 -73 -45 -98 -59 -176 -99 -422 -246 -460 -276
-128 -99 -216 -232 -255 -381 -14 -55 -15 -137 -12 -684 2 -342 7 -637 11
-656 28 -126 92 -248 177 -340 77 -82 119 -110 428 -281 151 -83 312 -174 358
-201 46 -27 86 -49 88 -49 3 0 29 -16 59 -35 30 -19 57 -35 60 -35 2 0 31 -15
63 -34 33 -18 94 -45 137 -59 68 -23 92 -26 219 -25 208 0 229 8 602 233 138
83 331 198 430 254 234 135 275 163 350 237 100 98 167 228 193 374 10 53 8
966 -3 1165 -6 118 -25 190 -80 301 -52 103 -133 195 -233 263 -33 22 -63 41
-66 41 -3 0 -28 13 -55 30 -28 16 -81 45 -118 65 -38 20 -75 40 -83 45 -8 5
-96 55 -195 111 -99 56 -196 110 -215 122 -286 166 -367 197 -530 202 -68 2
-126 -2 -165 -11z"/>
</g>
</svg>
