<?xml version="1.0" ?><svg enable-background="new 0 0 64 64" height="64px" id="Layer_1" version="1.1" viewBox="0 0 64 64" width="64px" xml:space="preserve" xmlns="http://www.w3.org/2000/svg" xmlns:xlink="http://www.w3.org/1999/xlink"><circle cx="32" cy="32" fill="#77B3D4" r="32"/><g opacity="0.2"><path d="M46,16H18c-1.105,0-2,0.895-2,2v32c0,1.105,0.895,2,2,2h28c1.105,0,2-0.895,2-2V18   C48,16.895,47.105,16,46,16z M19,19h26v25H19V19z" fill="#231F20"/></g><g><path d="M46,14H18c-1.105,0-2,0.895-2,2v32c0,1.105,0.895,2,2,2h28c1.105,0,2-0.895,2-2V16   C48,14.895,47.105,14,46,14z M19,17h26v25H19V17z" fill="#FFFFFF"/></g><rect fill="#4F5D73" height="25" width="26" x="19" y="17"/></svg>