<?xml version="1.0" ?><!DOCTYPE svg  PUBLIC '-//W3C//DTD SVG 1.1//EN'  'http://www.w3.org/Graphics/SVG/1.1/DTD/svg11.dtd'><svg enable-background="new 0 0 512 512" id="Layer_1" version="1.1" viewBox="0 0 512 512" xml:space="preserve" xmlns="http://www.w3.org/2000/svg" xmlns:xlink="http://www.w3.org/1999/xlink"><g id="Layer_1_1_"><circle cx="256" cy="256" fill="#007BB5" r="238.2"/></g><g id="Layer_2_1_"><g><path d="M265.7,237.3c3.2-3.9,5.6-7.7,8.6-10.8    c5.8-6,12.5-10.2,20.4-12.9c8.8-2.9,17.8-3.4,26.6-2.4c14.5,1.3,27.1,7.1,36.8,18c4.6,5.1,8,11.1,10.5,17.5    c1.9,5,3.4,10.1,4.4,15.4c0.7,4.5,1.7,9.1,1.7,13.7c0,32.1,0,64.3,0.1,96.4c0,1.6-0.4,2.1-2.1,2.1c-14.7,0-29.4-0.1-44.1,0    c-2.1,0-2.4-0.7-2.4-2.6c0-28.1,0-56.2,0-84.3c0-5.1-0.4-10.3-1.8-15.2c-2.6-8.3-7.7-14.2-16-17.3c-7.1-2.6-14.2-3-21.4-1.2    c-7.9,2.1-13.5,7.2-17.5,14.2c-2.2,3.9-3,8-3.5,12.5c-0.4,3.4-0.4,6.8-0.4,10.2c0,26.9,0,53.9,0,80.7c0,2.3-0.6,2.8-2.8,2.8    c-14.2-0.1-28.5-0.1-42.7,0c-2.6,0-2.9-0.9-2.9-3c0.1-49.6,0.1-99.1,0.1-148.7c0-5.8,0-5.8,5.8-5.8c13.4,0,26.7,0,40.1,0    c1.8,0,2.3,0.6,2.3,2.4C265.7,224.9,265.7,230.7,265.7,237.3z" fill="none" stroke="#FAFAFA" stroke-miterlimit="10" stroke-width="10"/><path d="M138.5,296.1c0-25.2,0-50.3,0-75.5    c0-2.1,0.5-2.8,2.7-2.8c14.5,0.1,28.9,0.1,43.4,0c2.2,0,2.7,0.7,2.7,2.8c0,50.2,0,100.5,0,150.8c0,2.2-0.5,2.9-2.8,2.9    c-14.5-0.1-28.9-0.1-43.4,0c-2.1,0-2.6-0.6-2.6-2.7C138.6,346.5,138.5,321.3,138.5,296.1z" fill="none" stroke="#FAFAFA" stroke-miterlimit="10" stroke-width="10"/><path d="M162.2,137.7c15.7-0.5,24.8,11.1,24.9,24.7    c0,14-9.8,24.4-25.2,24.4c-14.8,0-24.7-10.2-24.8-24.7C137.2,148.4,147.1,137.2,162.2,137.7z" fill="none" stroke="#FAFAFA" stroke-miterlimit="10" stroke-width="10"/></g></g></svg>